<?xml version="1.0" encoding="utf-8"?><!-- Uploaded to: SVG Repo, www.svgrepo.com, Generator: SVG Repo Mixer Tools -->
<svg width="1100px" height="800px" viewBox="0 0 24 24" fill="#000000" xmlns="http://www.w3.org/2000/svg">
<path d="M 11.281 1.955 L 12.4 0.787 C 13.203 -0.148 14.748 -0.343 15.733 0.714 L 27.593 13.448 C 28.571 14.497 28.316 16.184 27.072 16.897 L 15.211 23.701 C 14.394 24.17 13.466 24.056 12.797 23.573 L 1.119 16.874 C -0.125 16.161 -0.38 14.474 0.598 13.425 C 1.048 12.942 1.772 12.833 2.344 13.163 L 12.797 19.178 L 12.797 14.66 L 5.976 10.761 C 5.013 10.204 4.817 8.896 5.574 8.081 L 5.576 8.08 L 5.577 8.079 C 6.127 7.489 7.012 7.357 7.71 7.76 L 12.797 10.642 L 12.797 6.281 L 11.178 5.263 C 10.187 4.69 9.293 4.089 10.073 3.252 Z"  fill="#000000" /></svg>

