<svg fill="currentColor" xmlns="http://www.w3.org/2000/svg" xml:space="preserve" width="800" height="800" viewBox="0 0 97.637 97.637"><path d="M97.523 18.526a.48.48 0 0 0-.568-.131 39 39 0 0 1-9.153 2.776 20.3 20.3 0 0 0 7.143-10.035.484.484 0 0 0-.709-.565 39.2 39.2 0 0 1-12.18 4.701 20.4 20.4 0 0 0-14.644-6.219c-11.204 0-20.318 9.114-20.318 20.317 0 1.355.131 2.697.391 4-15.518-.958-30.028-8.408-39.894-20.509a.484.484 0 0 0-.795.062 20.3 20.3 0 0 0-2.751 10.215 20.3 20.3 0 0 0 7.649 15.896 19.4 19.4 0 0 1-7.089-2.292.483.483 0 0 0-.721.413l-.002.26c0 8.946 5.895 16.801 14.282 19.409a19.5 19.5 0 0 1-6.754-.098.486.486 0 0 0-.553.623A20.31 20.31 0 0 0 28.494 71.39c-6.785 4.971-14.805 7.59-23.279 7.59-1.561 0-3.133-.093-4.673-.274a.49.49 0 0 0-.514.317.485.485 0 0 0 .195.572 56.7 56.7 0 0 0 30.664 8.988c35.625 0 56.913-28.938 56.913-56.914q0-1.168-.046-2.327a40.5 40.5 0 0 0 9.802-10.235.49.49 0 0 0-.033-.581"/></svg>
